<?xml version="1.0" encoding="utf-8"?>
<!-- Generator: Adobe Illustrator 24.0.2, SVG Export Plug-In . SVG Version: 6.00 Build 0)  -->
<svg version="1.1" id="Layer_1" xmlns="http://www.w3.org/2000/svg" xmlns:xlink="http://www.w3.org/1999/xlink" x="0px" y="0px"
	 viewBox="0 0 1366 768" style="enable-background:new 0 0 1366 768;" xml:space="preserve">
<style type="text/css">
	.st0{fill:#FFFFFF;}
	.st1{fill:none;stroke:#000000;stroke-width:13;stroke-miterlimit:10;}
	.st2{fill:none;stroke:#000000;stroke-miterlimit:10;}
	.st3{fill:#FFFFFF;stroke:#FFFFFF;stroke-width:13;stroke-miterlimit:10;}
	.st4{fill:#FFFFFF;stroke:#FFFFFF;stroke-width:0.75;stroke-miterlimit:10;}
	.st5{fill:none;}
</style>
<g>
	<path d="M487.9,411.7c1.2-11.4,1.9-23.9,2.1-37.6l-15,0.4l0.2-3.9c0.1-2.1,0.2-4.4,0.2-6.9c6.7,0,23.3-0.8,23.3-0.8l8.7,1h8.4
		l4.4,0l-0.2,3.3c-0.1,1.8-0.2,3.3-0.2,4.4c0,1.2-0.1,2-0.1,2.6c-4.8-0.2-8.8-0.4-12-0.4H505c0,0-0.6,8.1-0.8,11.6
		c-0.3,5-0.5,9.9-0.6,14.7s-0.2,8.6-0.2,11.5c-3.8,0-6.3-0.1-7.4-0.1C494.9,411.6,492.2,411.7,487.9,411.7z"/>
	<path d="M523,411.9c0.5-5.4,0.8-9.4,1-12.4c0.2-4,0.5-9.6,0.7-16.6c0.2-7,0.3-12,0.3-14.9c0-1,0-2.5,0-4.4c3.1,0.1,5.6,0.1,7.4,0.1
		c2.6,0,5.5-0.1,8.9-0.2c3.4-0.1,6.3-0.2,8.8-0.2c2.9,0,5,0.1,6.3,0.2c1.6,0.2,3.1,0.6,4.3,1.1c1.2,0.5,2.3,1.2,3.1,2
		c0.9,0.9,1.6,2.1,2.1,3.4c0.6,1.5,0.9,3.1,0.9,4.8c0,1.3-0.2,2.6-0.5,3.8c-0.3,1.2-0.8,2.3-1.4,3.3c-0.6,0.9-1.3,1.7-2.1,2.4
		s-1.5,1.1-2.3,1.5s-1.7,0.7-3,1.1c1.2,0.2,2.2,0.5,3,0.7c0.8,0.3,1.6,0.7,2.4,1.3c0.9,0.6,1.6,1.4,2.3,2.3c0.7,0.9,1.2,2,1.5,3.1
		c0.3,1.2,0.5,2.4,0.5,3.7c0,1.8-0.3,3.5-0.9,5c-0.6,1.6-1.4,2.9-2.5,4c-0.9,1-2.1,1.8-3.5,2.5c-1.4,0.7-2.9,1.1-4.4,1.4
		c-1.2,0.2-3.4,0.3-6.7,0.4c-3.2,0.1-6.6,0.1-10.2-0.6l-9.2,1H523z M538,401.9h6.7c1.8,0,3.1-0.1,3.9-0.3c1-0.3,1.8-0.6,2.3-1
		c0.5-0.4,1-1,1.3-1.7c0.3-0.7,0.5-1.5,0.5-2.4c0-0.8-0.1-1.4-0.4-2c-0.3-0.6-0.6-1.1-1.1-1.5c-0.5-0.4-1.1-0.7-1.9-0.9
		c-0.7-0.2-1.9-0.3-3.5-0.3h-7.3L538,401.9z M539,381.9h4.8c1.6,0,2.7,0,3.3-0.1c0.4,0,0.8-0.1,1.2-0.2c1-0.2,2-0.7,2.6-1.5
		c0.3-0.4,0.5-0.8,0.7-1.3c0.2-0.6,0.3-1.2,0.3-1.7c0-0.8-0.2-1.6-0.6-2.2c-0.4-0.6-1-1.1-1.9-1.4c-0.9-0.3-2.2-0.5-4-0.5h-6
		L539,381.9z"/>
	<path d="M576.1,363.9c3.7,0,6.2,0.1,7.7,0.1c1.9,0,4.4,0,7.5-0.1l-1,14.9c-0.2,2.8-0.4,5.4-0.5,7.9s-0.2,4.2-0.2,5.1
		c0,1.8,0.1,3.3,0.4,4.5s0.7,2.2,1.4,3c0.7,0.8,1.6,1.5,2.8,1.9s2.5,0.6,3.8,0.6c1.1,0,2.2-0.2,3.2-0.5c0.8-0.3,1.5-0.6,2.1-1
		c0.5-0.4,1-0.9,1.4-1.5c0.5-0.7,0.9-1.5,1.3-2.5c0.4-0.9,0.7-2.2,0.8-3.7c0.2-1.5,0.5-5,0.8-10.5c0.3-4.6,0.5-8.9,0.7-12.7
		c0.1-3.7,0.3-5.6,0.4-5.6c3.5,0,6.3,0,8.4,0h7.1l-1.7,25c0,0.5,0,0.9,0,1.2c-0.1,4.9-0.4,8.3-0.9,10.3s-1.3,3.7-2.5,5.2
		s-2.9,2.8-5.1,4c-2.3,1.2-4.8,2-7.7,2.5s-5.8,0.7-8.7,0.7c-2.6,0-5.2-0.2-7.6-0.6c-2.3-0.4-4.3-0.9-6.1-1.6
		c-1.8-0.7-3.4-1.6-4.7-2.5c-1.2-0.9-2.2-1.8-2.8-2.7c-0.7-0.9-1.2-2-1.5-3.3c-0.4-1.5-0.6-3-0.6-4.7c0-0.6,0-1.4,0.1-2.5
		c0-1.1,0.2-2.8,0.3-4.9l0.5-5.6c0.1-1.5,0.2-3.6,0.4-6.5L576.1,363.9z"/>
	<path d="M658.2,384c3.2,0,6.3,0.1,9.2,0.1c5,0,8.9,0,11.7-0.1c-0.3,3.2-0.6,7.8-0.9,13.6c-0.3,5.9-0.5,10.3-0.6,13.3
		c-2.7,0.5-4.9,0.8-6.7,1.1s-3.9,0.4-6.4,0.6c-2.5,0.2-4.7,0.3-6.6,0.3c-3.2,0-6.3-0.3-9.4-0.8c-3.1-0.5-5.8-1.3-8.2-2.5
		c-2.4-1.1-4.4-2.7-6.1-4.7s-2.9-4.3-3.7-7c-0.9-2.7-1.3-5.5-1.3-8.4c0-4.8,1.2-9.2,3.6-13.3c2.4-4.1,5.8-7.3,10.2-9.7
		c4.4-2.4,10.2-3.6,17.2-3.6c5.1,0,10.8,0.6,17.1,1.9c0,3.4,0.2,7.2,0.5,11.4c-1.7-0.6-3.1-1-4.1-1.3c-1-0.3-2.3-0.6-3.7-0.8
		s-2.7-0.4-4-0.5c-1.3-0.1-2.4-0.2-3.4-0.2c-2.6,0-5,0.4-7.3,1.1s-4.3,1.9-5.9,3.4c-1.7,1.5-2.9,3.4-3.7,5.5
		c-0.8,2.1-1.2,4.4-1.2,6.8c0,2.4,0.5,4.6,1.4,6.5c0.9,1.9,2.4,3.3,4.5,4.3s4.3,1.5,6.8,1.5c2.1,0,4.4-0.3,6.9-0.9l0.4-7.6
		c-1.5-0.1-2.4-0.1-2.7-0.1l-3.7,0l0.2-4.3c0-0.5,0.1-1.1,0.1-2S658.2,385.5,658.2,384z"/>
	<path d="M714.3,384c3.2,0,6.3,0.1,9.2,0.1c5,0,8.9,0,11.7-0.1c-0.3,3.2-0.6,7.8-0.9,13.6c-0.3,5.9-0.5,10.3-0.6,13.3
		c-2.7,0.5-4.9,0.8-6.7,1.1c-1.8,0.2-3.9,0.4-6.4,0.6s-4.7,0.3-6.6,0.3c-3.2,0-6.3-0.3-9.4-0.8c-3.1-0.5-5.8-1.3-8.2-2.5
		c-2.4-1.1-4.4-2.7-6.1-4.7s-2.9-4.3-3.7-7c-0.9-2.7-1.3-5.5-1.3-8.4c0-4.8,1.2-9.2,3.6-13.3s5.8-7.3,10.2-9.7
		c4.4-2.4,10.2-3.6,17.2-3.6c5.1,0,10.8,0.6,17.1,1.9c0,3.4,0.2,7.2,0.5,11.4c-1.7-0.6-3.1-1-4.1-1.3c-1-0.3-2.3-0.6-3.7-0.8
		s-2.7-0.4-4-0.5c-1.3-0.1-2.4-0.2-3.4-0.2c-2.6,0-5,0.4-7.3,1.1s-4.3,1.9-5.9,3.4c-1.7,1.5-2.9,3.4-3.7,5.5
		c-0.8,2.1-1.2,4.4-1.2,6.8c0,2.4,0.5,4.6,1.4,6.5c0.9,1.9,2.4,3.3,4.5,4.3s4.3,1.5,6.8,1.5c2.1,0,4.4-0.3,6.9-0.9l0.4-7.6
		c-1.5-0.1-2.4-0.1-2.7-0.1l-3.7,0l0.2-4.3c0-0.5,0.1-1.1,0.1-2S714.3,385.5,714.3,384z"/>
	<path d="M742.3,411.9c0.6-6.3,1-11.3,1.3-15.4c0.3-4.1,0.5-9.5,0.8-16.3c0.3-6.8,0-13.4,0-13.4v-3.1c0,0,12.6,0.1,20.4,0.1
		c7.2,0,13.6,0,19.2-0.1l-0.1,1.2c0,0.3-0.1,1.3-0.2,3l-0.2,3.8c0,0.8-0.1,1.6-0.1,2.5c-4.5-0.2-8.3-0.3-11.4-0.3
		c-3.4,0-5.7,0-6.8,0c-1.2,0-3,0.1-5.5,0.2l-0.4,8.1c2.8,0.1,6,0.1,9.7,0.1c1.3,0,4.8-0.1,10.5-0.2c-0.2,3-0.5,6.6-0.7,10.7
		c-4.1,0-7.2-0.1-9.3-0.1c-3.2,0-6.9,0.1-10.9,0.2l-0.4,9h4c1.2-0.4,3.7-0.5,7.4-0.5l7.3-0.2c1.1,0,2.9-0.1,5.4-0.3
		c-0.3,3.5-0.5,7.1-0.7,10.8c-5.7,0-18.8-0.8-18.8-0.8l-15.5,1H742.3z"/>
	<path d="M789.7,411.7c0.4-4.1,0.8-7.8,1.1-11.1s0.5-7.1,0.7-11.5s0.3-9,0.4-13.8c0.1-4.8,0.1-8.7,0.1-11.5c2.9,0.1,5.3,0.1,7.1,0.1
		c1.9,0,4.2-0.1,6.9-0.2c2.7-0.1,5.3-0.2,7.9-0.2c3,0,5.7,0.1,8,0.4c1.8,0.2,3.4,0.5,4.8,1c1.4,0.5,2.7,1.1,3.6,1.9s1.8,1.6,2.5,2.5
		s1.2,2,1.5,3.2s0.5,2.5,0.5,4c0,1.6-0.2,3-0.6,4.4s-1,2.7-1.9,3.9c-0.9,1.2-1.9,2.3-3.2,3.1s-3.1,1.8-5.5,2.7l1.8,4.5
		c0.5,1.2,1.1,2.5,1.7,3.8l4.7,10.3c0.2,0.4,0.6,1.3,1.1,2.6c-3.9,0-6.5-0.1-7.8-0.1c-1.7,0-4.5,0-8.3,0.1c-0.4-1.2-1.1-3.5-2-6.8
		c-0.4-1.4-0.7-2.4-1-3.2c-0.6-1.7-1.4-4-2.5-7l-3.6-9.9c1.3,0.2,2.5,0.4,3.7,0.4c1.7,0,3.3-0.3,4.7-0.8c1.4-0.5,2.4-1.3,3.2-2.4
		c0.7-1.1,1.1-2.2,1.1-3.4c0-1-0.3-1.9-0.8-2.7c-0.5-0.8-1.4-1.3-2.5-1.7c-1.2-0.4-2.9-0.6-5.4-0.6c-0.8,0-1.7,0-2.5,0.1
		s-1.9,0.1-3.1,0.1c-0.3,4.8-0.6,10.7-0.8,17.6c-0.2,6.9-0.4,13.7-0.5,20.4c-3.9,0-6.5-0.1-7.6-0.1
		C795.7,411.6,793.2,411.7,789.7,411.7z"/>
	<path d="M833.4,411.7c2.7-3.5,6.1-7.8,10-13.1c3.9-5.3,7-9.4,9.1-12.5l-4.1-7c-0.8-1.3-1.9-3-3.3-5.3l-3.5-5.4
		c-0.9-1.4-1.8-2.9-2.9-4.6c3,0,6.1,0.1,9.3,0.1c2.5,0,5.2,0,8.1-0.1c1,2,2.2,4.2,3.6,6.6c1.4,2.4,2.5,4.4,3.3,6.2
		c0.9-1.6,2.2-3.6,3.8-6c1.6-2.4,3-4.7,4.3-6.8c2.5,0,5.2,0.1,8.1,0.1c1.9,0,4.6,0,8.1-0.1c-1.7,2.4-4.2,5.8-7.5,10.3
		s-6.5,8.8-9.5,13.1c3.8,6.5,9,14.7,15.5,24.6c-3.7,0-6.5-0.1-8.3-0.1c-3.1,0-6.2,0-9.2,0.1c-0.9-1.9-2.2-4.2-3.8-7.1
		c-1.7-2.9-3.1-5.5-4.3-7.9c-0.9,1.6-2.4,4-4.5,6.9c-2.1,3-3.9,5.7-5.5,8.1c-3.4,0-6.1-0.1-8.1-0.1
		C839.7,411.6,836.9,411.7,833.4,411.7z"/>
</g>
<path class="st0" d="M469.7,387.9h431H469.7z"/>
<path class="st1" d="M906.9,432.4H458c-0.1-9.4-0.2-18.8-0.4-28.2c-0.2-18.3-0.5-36.6-0.7-54.8c149.6,0,299.3,0,448.9,0L906.9,432.4
	z"/>
<path class="st2" d="M451.9,379.4"/>
<path class="st3" d="M432.1,362.8c13.3,2.9,22.7,15,22.1,28.3c-0.5,14-11.8,25.6-26.1,26.7"/>
<path class="st3" d="M937.4,415.8c-13.6-0.4-25-10.6-27-23.7c-2-13.8,6.9-27.4,20.8-31"/>
<rect x="466.9" y="349.4" class="st4" width="430" height="2"/>
<rect x="466.9" y="427.4" class="st4" width="430" height="4"/>
<path id="SVGID_x5F_1_x5F_" class="st5" d="M802.9,418.8c38.9-18,81-29.2,123.7-32.8"/>
<text><textPath  xlink:href="#SVGID_x5F_1_x5F_" startOffset="66.797%">
</textPath>
</text>
<rect x="479.3" y="384.9" class="st5" width="387" height="26.1"/>
<rect x="442.4" y="343.9" class="st0" width="10" height="1"/>
<rect x="442.4" y="345.9" class="st0" width="10" height="1"/>
<rect x="442.4" y="347.9" class="st0" width="10" height="1"/>
<rect x="442.4" y="349.9" class="st0" width="10" height="1"/>
<rect x="442.4" y="351.9" class="st0" width="10" height="1"/>
<rect x="442.4" y="353.9" class="st0" width="10" height="1"/>
<rect x="442.4" y="355.9" class="st0" width="10" height="1"/>
<rect x="442.4" y="357.9" class="st0" width="10" height="1"/>
<rect x="442.4" y="359.9" class="st0" width="10" height="1"/>
<rect x="442.4" y="361.9" class="st0" width="10" height="1"/>
<rect x="443.4" y="417.9" class="st0" width="10" height="1"/>
<rect x="443.4" y="419.9" class="st0" width="10" height="1"/>
<rect x="443.4" y="421.9" class="st0" width="10" height="1"/>
<rect x="443.4" y="423.9" class="st0" width="10" height="1"/>
<rect x="443.4" y="425.9" class="st0" width="10" height="1"/>
<rect x="443.4" y="427.9" class="st0" width="10" height="1"/>
<rect x="443.4" y="429.9" class="st0" width="10" height="1"/>
<rect x="443.4" y="431.9" class="st0" width="10" height="1"/>
<rect x="443.4" y="433.9" class="st0" width="10" height="1"/>
<rect x="443.4" y="435.9" class="st0" width="10" height="1"/>
<rect x="911.4" y="435.9" class="st0" width="10" height="1"/>
<rect x="911.4" y="433.9" class="st0" width="10" height="1"/>
<rect x="911.4" y="431.9" class="st0" width="10" height="1"/>
<rect x="911.4" y="429.9" class="st0" width="10" height="1"/>
<rect x="911.4" y="427.9" class="st0" width="10" height="1"/>
<rect x="911.4" y="425.9" class="st0" width="10" height="1"/>
<rect x="911.4" y="423.9" class="st0" width="10" height="1"/>
<rect x="911.4" y="421.9" class="st0" width="10" height="1"/>
<rect x="911.4" y="419.9" class="st0" width="10" height="1"/>
<rect x="911.4" y="417.9" class="st0" width="10" height="1"/>
<rect x="911.4" y="415.9" class="st0" width="10" height="1"/>
<rect x="910.4" y="343.9" class="st0" width="10" height="1"/>
<rect x="910.4" y="345.9" class="st0" width="10" height="1"/>
<rect x="910.4" y="347.9" class="st0" width="10" height="1"/>
<rect x="910.4" y="349.9" class="st0" width="10" height="1"/>
<rect x="910.4" y="351.9" class="st0" width="10" height="1"/>
<rect x="910.4" y="353.9" class="st0" width="10" height="1"/>
<rect x="910.4" y="355.9" class="st0" width="10" height="1"/>
<rect x="910.4" y="357.9" class="st0" width="10" height="1"/>
</svg>
